<svg width="101" height="101" viewBox="0 0 101 101" fill="none" xmlns="http://www.w3.org/2000/svg">
<path d="M50.038 8.1797C51.2001 8.41408 52.372 8.63869 53.5341 8.87306C56.3173 9.4297 59.1005 9.97658 61.8837 10.5332C65.2626 11.207 68.6513 11.8711 72.0302 12.5449C74.9501 13.1211 77.8798 13.707 80.7998 14.2832C82.206 14.5664 83.6318 14.918 85.0478 15.1231C85.0673 15.1231 85.0869 15.1328 85.1064 15.1328C84.6279 14.5078 84.1494 13.8731 83.6708 13.2481C83.6708 14.5957 83.6708 15.9434 83.6708 17.291C83.6708 20.6211 83.6708 23.961 83.6708 27.291C83.6708 31.4902 83.6708 35.6895 83.6708 39.8789C83.6708 43.8731 83.6708 47.8574 83.6708 51.8516C83.6708 54.5078 83.6708 57.1738 83.6708 59.8301C83.6708 60.4649 83.6904 61.1094 83.6611 61.7442C83.6513 61.9492 83.6318 62.1543 83.6123 62.3594C83.6025 62.418 83.5927 62.4863 83.5927 62.5449C83.5537 62.9258 83.6904 61.9004 83.6318 62.2813C83.6123 62.4375 83.583 62.584 83.5537 62.7403C83.4072 63.5801 83.1923 64.4102 82.9287 65.2207C82.7529 65.7578 82.5673 66.2852 82.3525 66.8028C82.333 66.8613 82.3037 66.9199 82.2841 66.9785C82.1376 67.3496 82.3915 66.7832 82.372 66.7637C82.3915 66.7832 82.1865 67.1934 82.1669 67.2324C82.0302 67.5352 81.8935 67.8379 81.747 68.1309C81.0634 69.5176 80.2626 70.8457 79.3935 72.125C79.1396 72.4961 78.8857 72.8574 78.6123 73.209C78.4755 73.3848 78.3388 73.5606 78.2021 73.7461C78.2021 73.7461 78.5341 73.3262 78.3486 73.5508C78.3095 73.5996 78.2802 73.6387 78.2412 73.6875C78.163 73.7949 78.0751 73.8926 77.997 74C77.3623 74.8008 76.6884 75.5723 75.9951 76.3145C74.374 78.0625 72.6357 79.6934 70.7998 81.2168C70.2822 81.6465 69.7548 82.0664 69.2275 82.4863C69.1689 82.5352 69.1005 82.6035 69.0322 82.6426C69.4033 82.4278 69.2275 82.4864 69.1298 82.5645C68.9931 82.6719 68.8564 82.7695 68.7197 82.877C68.4267 83.1016 68.124 83.3164 67.831 83.541C66.581 84.4492 65.3017 85.3281 64.0029 86.1582C61.0439 88.0625 57.9775 89.7813 54.8427 91.3633C53.1044 92.2422 51.3369 93.0723 49.5595 93.8731C50.0576 93.8047 50.5654 93.7461 51.0634 93.6778C50.7021 93.5508 50.3505 93.4141 49.9892 93.2676C49.5693 93.1016 49.1591 92.9356 48.749 92.7598C48.5927 92.6914 48.29 92.5645 48.9833 92.8574C48.9247 92.8281 48.8564 92.8086 48.7978 92.7793C48.6611 92.7207 48.5146 92.6621 48.3779 92.6035C48.0947 92.4766 47.8115 92.3594 47.5185 92.2324C44.2958 90.7969 41.1611 89.166 38.1435 87.3496C36.2392 86.2071 34.3837 84.9864 32.5869 83.6875C32.1181 83.3457 31.6494 82.9942 31.1806 82.6328C30.9169 82.4277 31.5224 82.9063 31.1904 82.6426C31.0732 82.5547 30.9658 82.4668 30.8486 82.3789C30.6044 82.1934 30.3701 81.9981 30.1357 81.8027C29.2177 81.0508 28.3193 80.2793 27.4501 79.4785C25.6728 77.8379 24.0126 76.0801 22.5087 74.1856C22.4208 74.0684 22.1181 73.668 22.4697 74.1465C22.3818 74.0293 22.2939 73.9121 22.1962 73.7949C22.0205 73.5606 21.8447 73.3164 21.6689 73.082C21.3173 72.584 20.9658 72.086 20.6435 71.5684C19.9892 70.5625 19.3935 69.5176 18.8564 68.4434C18.7197 68.1797 18.5927 67.916 18.4755 67.6426C18.4169 67.5059 18.3486 67.3692 18.29 67.2422C18.2607 67.1738 18.2314 67.1055 18.2021 67.0371C18.1728 66.9688 18.0361 66.6563 18.1728 66.959C18.3095 67.291 18.1044 66.793 18.0751 66.7246C18.0263 66.6074 17.9775 66.4805 17.9287 66.3633C17.8115 66.0508 17.6943 65.7383 17.5869 65.416C17.1865 64.2539 16.8935 63.082 16.6201 61.8809C16.5029 61.3535 16.6005 62.3301 16.6298 62.0664C16.6396 62.0078 16.6298 61.9395 16.6298 61.8809C16.6298 61.627 16.6298 61.3828 16.6298 61.1289C16.6298 58.7461 16.6298 56.3731 16.6298 53.9902C16.6298 50.1817 16.6298 46.3828 16.6298 42.5742C16.6298 38.375 16.6298 34.1758 16.6298 29.9863C16.6298 26.4219 16.6298 22.8574 16.6298 19.2832C16.6298 17.418 16.6298 15.543 16.6298 13.6778C16.6298 13.5899 16.6298 13.502 16.6298 13.4141C16.1513 14.0391 15.6728 14.6738 15.1943 15.2988C16.3759 15.0645 17.5576 14.8301 18.749 14.586C21.6103 14.0195 24.4716 13.4434 27.333 12.877C30.7802 12.1934 34.2275 11.5 37.6748 10.8164C40.6533 10.2207 43.6415 9.62502 46.6201 9.02931C48.0751 8.73634 49.5498 8.51174 50.9951 8.16017C51.0146 8.15041 51.0341 8.15041 51.0537 8.15041C52.0595 7.94533 52.7236 6.70509 52.4208 5.74806C52.079 4.68361 51.0927 4.16603 50.0185 4.38088C48.8369 4.61525 47.6552 4.84963 46.4638 5.09377C43.6025 5.66017 40.7412 6.23634 37.8798 6.80275C34.4326 7.48634 30.9853 8.1797 27.538 8.8633C24.5888 9.4883 21.6103 10.084 18.6318 10.6797C17.1865 10.9727 15.6923 11.1778 14.2568 11.5488C14.2373 11.5586 14.2177 11.5586 14.1982 11.5586C13.3681 11.7246 12.7626 12.6328 12.7626 13.4434C12.7626 14.791 12.7626 16.1387 12.7626 17.4863C12.7626 20.8067 12.7626 24.127 12.7626 27.4473C12.7626 31.6465 12.7626 35.836 12.7626 40.0352C12.7626 44.0684 12.7626 48.1113 12.7626 52.1446C12.7626 54.8789 12.7626 57.6231 12.7626 60.3574C12.7626 60.9141 12.7529 61.4805 12.7626 62.0371C12.7822 62.711 12.9775 63.3945 13.1337 64.0488C13.4267 65.25 13.8076 66.4219 14.2568 67.5742C16.1611 72.3985 19.1689 76.666 22.7724 80.3672C26.1513 83.834 30.0283 86.8125 34.0908 89.4297C37.3232 91.5098 40.7119 93.3555 44.1982 94.9863C46.0634 95.8555 47.958 96.7344 49.9013 97.4082C50.8876 97.75 51.8642 97.125 52.7529 96.7149C54.54 95.8945 56.3076 95.0352 58.0556 94.127C61.122 92.5352 64.1201 90.7969 67.0107 88.8828C71.4345 85.9434 75.6435 82.5938 79.1982 78.6387C81.5712 76.002 83.7099 73.082 85.2529 69.8789C86.1904 67.9258 86.9814 65.8653 87.3427 63.7266C87.4794 62.9356 87.5869 62.1348 87.5869 61.3242C87.5869 59.7031 87.5869 58.082 87.5869 56.461C87.5869 52.9746 87.5869 49.4981 87.5869 46.0117C87.5869 41.7832 87.5869 37.5547 87.5869 33.336C87.5869 29.4395 87.5869 25.5332 87.5869 21.6367C87.5869 19.1856 87.5869 16.7344 87.5869 14.2735C87.5869 13.9317 87.5869 13.5996 87.5869 13.2578C87.5869 12.457 86.9814 11.5391 86.1513 11.3731C84.9892 11.1387 83.8173 10.9141 82.6552 10.6797C79.872 10.1231 77.0888 9.57619 74.3056 9.01955C70.9267 8.34572 67.538 7.68166 64.1591 7.00783C61.2392 6.43166 58.3095 5.84572 55.3896 5.26955C53.9736 4.98634 52.5576 4.69338 51.1415 4.4297C51.122 4.4297 51.1025 4.41994 51.083 4.41994C50.0869 4.22463 48.9248 4.70314 48.6806 5.78713C48.456 6.74416 48.9736 7.96486 50.038 8.1797Z" fill="#41C27F"/>
<path d="M30.6335 47.5158C32.0007 48.883 33.3777 50.26 34.7448 51.6272C36.9421 53.8244 39.1491 56.0315 41.3464 58.2287C41.8542 58.7365 42.3523 59.2346 42.8601 59.7424C43.6023 60.4846 44.8718 60.4944 45.6238 59.7424C46.4148 58.9514 47.2155 58.1506 48.0066 57.3596C49.9304 55.4358 51.8445 53.5217 53.7683 51.5979C56.0827 49.2834 58.3972 46.969 60.7019 44.6643C62.7136 42.6526 64.7253 40.6408 66.737 38.6291C67.7136 37.6526 68.7195 36.7053 69.6667 35.6994C69.6765 35.6799 69.696 35.6701 69.7058 35.6604C70.4284 34.9377 70.487 33.6096 69.7058 32.8967C68.9245 32.1838 67.7136 32.1252 66.9421 32.8967C66.1511 33.6877 65.3503 34.4885 64.5593 35.2795C62.6355 37.2033 60.7214 39.1174 58.7976 41.0412C56.4831 43.3557 54.1687 45.6701 51.864 47.9748C49.8523 49.9865 47.8405 51.9983 45.8288 54.01C44.8523 54.9865 43.8269 55.924 42.8991 56.9397C42.8894 56.9592 42.8698 56.969 42.8601 56.9787C43.7781 56.9787 44.7058 56.9787 45.6238 56.9787C44.2566 55.6115 42.8796 54.2346 41.5124 52.8674C39.3152 50.6701 37.1081 48.4631 34.9109 46.2658C34.4031 45.758 33.905 45.26 33.3972 44.7522C32.6745 44.0295 31.3464 43.9709 30.6335 44.7522C29.9206 45.5334 29.862 46.7444 30.6335 47.5158Z" fill="#41C27F"/>
</svg>
