<svg width="101" height="101" viewBox="0 0 101 101" fill="none" xmlns="http://www.w3.org/2000/svg">
<path d="M91.4248 98.7461H8.9248V3.43359H63.9248L91.4248 30.9336V98.7461ZM13.6123 94.0586H86.7373V32.8086L61.7373 7.80859H13.6123V94.0586Z" fill="#41C27F"/>
<path d="M89.2373 34.3715H62.9873C61.7373 34.3715 60.4873 33.434 60.4873 31.8715V5.62147C60.4873 4.68397 61.1123 3.74647 62.0498 3.43397C62.9873 3.12147 63.9248 3.12147 64.5498 4.05897L90.7998 30.309C91.4248 30.934 91.7373 31.8715 91.4248 32.809C90.7998 33.7465 90.1748 34.3715 89.2373 34.3715ZM65.1748 29.684H83.2998L65.1748 11.559V29.684Z" fill="#41C27F"/>
<path d="M46.1123 22.1836H28.2998V26.8711H46.1123V22.1836Z" fill="#41C27F"/>
<path d="M46.1123 35.3086H28.2998V39.9961H46.1123V35.3086Z" fill="#41C27F"/>
<path d="M72.0498 48.7461H28.2998V53.4336H72.0498V48.7461Z" fill="#41C27F"/>
<path d="M72.0498 61.8711H28.2998V66.5586H72.0498V61.8711Z" fill="#41C27F"/>
<path d="M72.0498 74.9961H28.2998V79.6836H72.0498V74.9961Z" fill="#41C27F"/>
</svg>
