<svg width="101" height="101" viewBox="0 0 101 101" fill="none" xmlns="http://www.w3.org/2000/svg">
<path d="M50.1748 33.7461C41.7373 33.7461 35.1748 26.8711 35.1748 18.7461C35.1748 10.3086 42.0498 3.74609 50.1748 3.74609C58.6123 3.74609 65.1748 10.6211 65.1748 18.7461C65.1748 27.1836 58.6123 33.7461 50.1748 33.7461ZM50.1748 8.43359C44.5498 8.43359 39.8623 13.1211 39.8623 18.7461C39.8623 24.3711 44.5498 29.0586 50.1748 29.0586C55.7998 29.0586 60.4873 24.3711 60.4873 18.7461C60.4873 13.1211 55.7998 8.43359 50.1748 8.43359Z" fill="#41C27F"/>
<path d="M50.1748 98.1211C22.9873 98.1211 2.3623 89.3711 2.3623 78.1211C2.3623 70.6211 11.1123 64.3711 26.1123 60.6211L28.9248 59.9961V79.6836H71.1123V59.9961L73.9248 60.6211C88.9248 64.0586 97.6748 70.6211 97.6748 78.1211C97.9873 89.6836 77.3623 98.1211 50.1748 98.1211ZM24.2373 66.2461C13.6123 69.0586 7.0498 73.7461 7.0498 78.4336C7.0498 85.6211 24.5498 93.7461 50.1748 93.7461C75.7998 93.7461 93.2998 85.6211 93.2998 78.4336C93.2998 74.0586 86.7373 69.3711 76.1123 66.2461V84.6836H24.2373V66.2461Z" fill="#41C27F"/>
<path d="M76.1123 84.6836H24.2373V59.3711C24.2373 46.5586 34.8623 35.9336 47.6748 35.9336H52.6748C65.4873 35.9336 76.1123 46.2461 76.1123 59.3711V84.6836ZM28.9248 79.9961H71.1123V59.3711C71.1123 49.0586 62.6748 40.6211 52.3623 40.6211H47.3623C37.0498 40.6211 28.6123 49.0586 28.6123 59.3711V79.9961H28.9248Z" fill="#41C27F"/>
</svg>
