<svg width="101" height="101" viewBox="0 0 101 101" fill="none" xmlns="http://www.w3.org/2000/svg">
<path d="M97.9873 97.4961H2.6748V27.1836H97.9873V97.4961ZM7.3623 92.8086H93.2998V31.8711H7.3623V92.8086Z" fill="#41C27F"/>
<path d="M97.9873 31.8711H2.6748V9.99609H97.9873V31.8711ZM7.3623 27.1836H93.2998V14.6836H7.3623V27.1836Z" fill="#41C27F"/>
<path d="M19.2373 4.37109H14.5498V19.6836H19.2373V4.37109Z" fill="#41C27F"/>
<path d="M41.4248 4.37109H36.7373V19.6836H41.4248V4.37109Z" fill="#41C27F"/>
<path d="M63.6123 4.37109H58.9248V19.6836H63.6123V4.37109Z" fill="#41C27F"/>
<path d="M85.7998 4.37109H81.1123V19.6836H85.7998V4.37109Z" fill="#41C27F"/>
<path d="M63.9248 40.3086H56.1123V44.9961H63.9248V40.3086Z" fill="#41C27F"/>
<path d="M83.9248 40.3086H76.1123V44.9961H83.9248V40.3086Z" fill="#41C27F"/>
<path d="M24.2373 53.4336H16.4248V58.1211H24.2373V53.4336Z" fill="#41C27F"/>
<path d="M43.9248 53.4336H36.1123V58.1211H43.9248V53.4336Z" fill="#41C27F"/>
<path d="M63.9248 53.4336H56.1123V58.1211H63.9248V53.4336Z" fill="#41C27F"/>
<path d="M83.9248 53.4336H76.1123V58.1211H83.9248V53.4336Z" fill="#41C27F"/>
<path d="M24.2373 66.5586H16.4248V71.2461H24.2373V66.5586Z" fill="#41C27F"/>
<path d="M43.9248 66.5586H36.1123V71.2461H43.9248V66.5586Z" fill="#41C27F"/>
<path d="M63.9248 66.5586H56.1123V71.2461H63.9248V66.5586Z" fill="#41C27F"/>
<path d="M83.9248 66.5586H76.1123V71.2461H83.9248V66.5586Z" fill="#41C27F"/>
<path d="M24.2373 79.6836H16.4248V84.3711H24.2373V79.6836Z" fill="#41C27F"/>
<path d="M43.9248 79.6836H36.1123V84.3711H43.9248V79.6836Z" fill="#41C27F"/>
</svg>
