<?xml version="1.0" encoding="utf-8"?><svg viewBox="0 0 101 101" xmlns="http://www.w3.org/2000/svg" xmlns:xlink="http://www.w3.org/1999/xlink"><style>:root>svg{display:none}:root>svg:target{display:block}</style><svg viewBox="0 0 21 21" id="arrow-l" xmlns="http://www.w3.org/2000/svg"><path opacity=".8" d="m7.153 10.463 6.066-6.3c.385-.4.385-1 0-1.4a.908.908 0 0 0-1.348 0l-6.74 7c-.194.2-.29.5-.29.7 0 .3.096.5.289.7l6.74 7c.194.2.386.3.675.3.289 0 .482-.1.674-.3.385-.4.385-1 0-1.4l-6.067-6.3Z"/></svg><svg viewBox="0 0 21 21" id="arrow-r" xmlns="http://www.w3.org/2000/svg"><path opacity=".8" d="m13.197 10.463-6.067-6.3a.993.993 0 0 1 0-1.4c.386-.4.964-.4 1.349 0l6.74 7c.193.2.29.5.29.7 0 .3-.097.5-.29.7l-6.74 7c-.193.2-.385.3-.675.3-.288 0-.481-.1-.673-.3a.992.992 0 0 1 0-1.4l6.067-6.3h-.001Z"/></svg><svg viewBox="0 0 29 29" id="close" xmlns="http://www.w3.org/2000/svg"><path d="M28.209 3.553 25.447.792 14.5 11.739 3.553.792.792 3.552 11.739 14.5.792 25.447l2.761 2.761L14.5 17.261l10.947 10.947 2.762-2.76L17.262 14.5 28.209 3.553Z"/></svg><svg viewBox="0 0 101 101" id="icon" xmlns="http://www.w3.org/2000/svg"><path d="M97.987 97.496H2.675V27.184h95.312v70.312ZM7.362 92.81H93.3V31.87H7.362v60.94Z"/><path d="M97.987 31.871H2.675V9.996h95.312v21.875ZM7.362 27.184H93.3v-12.5H7.362v12.5Z"/><path d="M19.237 4.371H14.55v15.313h4.687V4.37Zm22.188 0h-4.688v15.313h4.688V4.37Zm22.187 0h-4.687v15.313h4.687V4.37Zm22.188 0h-4.688v15.313H85.8V4.37ZM63.925 40.309h-7.813v4.687h7.813V40.31Zm20 0h-7.813v4.687h7.813V40.31ZM24.237 53.434h-7.812v4.687h7.812v-4.687Zm19.688 0h-7.813v4.687h7.813v-4.687Zm20 0h-7.813v4.687h7.813v-4.687Zm20 0h-7.813v4.687h7.813v-4.687ZM24.237 66.559h-7.812v4.687h7.812V66.56Zm19.688 0h-7.813v4.687h7.813V66.56Zm20 0h-7.813v4.687h7.813V66.56Zm20 0h-7.813v4.687h7.813V66.56ZM24.237 79.684h-7.812v4.687h7.812v-4.687Zm19.688 0h-7.813v4.687h7.813v-4.687Z"/></svg><svg viewBox="0 0 101 101" id="icon2" xmlns="http://www.w3.org/2000/svg"><path d="M50.175 33.746c-8.438 0-15-6.875-15-15 0-8.437 6.875-15 15-15 8.437 0 15 6.875 15 15 0 8.438-6.563 15-15 15Zm0-25.312c-5.625 0-10.313 4.687-10.313 10.312 0 5.625 4.688 10.313 10.313 10.313 5.625 0 10.312-4.688 10.312-10.313 0-5.625-4.687-10.312-10.312-10.312Zm0 89.687c-27.188 0-47.813-8.75-47.813-20 0-7.5 8.75-13.75 23.75-17.5l2.813-.625v19.688h42.187V59.996l2.813.625c15 3.438 23.75 10 23.75 17.5.312 11.563-20.313 20-47.5 20ZM24.237 66.246C13.612 69.06 7.05 73.746 7.05 78.434c0 7.187 17.5 15.312 43.125 15.312S93.3 85.621 93.3 78.434c0-4.375-6.563-9.063-17.188-12.188v18.438H24.237V66.246Z"/><path d="M76.112 84.684H24.237V59.37c0-12.812 10.625-23.437 23.438-23.437h5c12.812 0 23.437 10.312 23.437 23.437v25.313Zm-47.187-4.688h42.187V59.371c0-10.312-8.437-18.75-18.75-18.75h-5c-10.312 0-18.75 8.438-18.75 18.75v20.625h.313Z"/></svg><svg viewBox="0 0 101 101" id="icon3" xmlns="http://www.w3.org/2000/svg"><path d="M50.038 8.18c1.162.234 2.334.459 3.496.693 2.783.557 5.566 1.104 8.35 1.66 3.379.674 6.767 1.338 10.146 2.012 2.92.576 5.85 1.162 8.77 1.738 1.406.283 2.832.635 4.248.84.02 0 .039.01.058.01-.478-.625-.957-1.26-1.435-1.885V59.83c0 .635.02 1.28-.01 1.914-.01.205-.03.41-.049.615-.01.059-.02.127-.02.186-.038.38.098-.645.04-.264-.02.157-.049.303-.078.46a18.09 18.09 0 0 1-.625 2.48 21.824 21.824 0 0 1-.576 1.582c-.02.058-.05.117-.069.175-.146.372.107-.195.088-.214.02.02-.186.43-.205.468a25.17 25.17 0 0 1-.42.899 33.463 33.463 0 0 1-2.353 3.994 21.79 21.79 0 0 1-.782 1.084c-.136.176-.273.352-.41.537 0 0 .332-.42.147-.195l-.108.136c-.078.108-.166.206-.244.313a37.78 37.78 0 0 1-2.002 2.314 54.786 54.786 0 0 1-5.195 4.903c-.518.43-1.045.85-1.572 1.27-.06.048-.127.117-.196.156.371-.215.196-.157.098-.079-.137.108-.274.206-.41.313-.293.225-.596.44-.889.664a77.918 77.918 0 0 1-3.828 2.617c-2.96 1.904-6.026 3.623-9.16 5.205a130.61 130.61 0 0 1-5.284 2.51c.499-.068 1.006-.127 1.504-.195a24.196 24.196 0 0 1-1.074-.41c-.42-.166-.83-.332-1.24-.508-.156-.069-.459-.196.234.097-.058-.029-.127-.048-.185-.078l-.42-.175c-.283-.127-.566-.245-.86-.372a86.181 86.181 0 0 1-9.374-4.882 77.836 77.836 0 0 1-5.557-3.662 65.691 65.691 0 0 1-1.406-1.055c-.264-.205.341.273.01.01-.118-.088-.225-.176-.342-.264a20.21 20.21 0 0 1-.713-.576 61.031 61.031 0 0 1-2.686-2.325 46.912 46.912 0 0 1-4.941-5.292c-.088-.118-.39-.518-.04-.04a7.591 7.591 0 0 0-.273-.351c-.176-.234-.351-.479-.527-.713a31.613 31.613 0 0 1-1.026-1.514 31.872 31.872 0 0 1-1.787-3.125 12.041 12.041 0 0 1-.38-.8c-.06-.137-.127-.274-.186-.4l-.088-.206c-.03-.068-.166-.38-.03-.078l-.097-.234c-.049-.118-.098-.244-.146-.362-.117-.312-.235-.625-.342-.947-.4-1.162-.694-2.334-.967-3.535-.117-.528-.02.45.01.185.01-.058 0-.127 0-.185V13.414c-.479.625-.957 1.26-1.436 1.885 1.182-.234 2.364-.469 3.555-.713 2.861-.566 5.723-1.143 8.584-1.709 3.447-.684 6.895-1.377 10.342-2.06l8.945-1.788c1.455-.293 2.93-.517 4.375-.869.02-.01.04-.01.059-.01 1.005-.205 1.67-1.445 1.367-2.402-.342-1.064-1.328-1.582-2.402-1.367-1.182.234-2.364.469-3.555.713-2.861.566-5.723 1.142-8.584 1.709-3.447.683-6.895 1.377-10.342 2.06-2.95.625-5.928 1.221-8.906 1.817-1.446.293-2.94.498-4.375.869-.02.01-.04.01-.059.01-.83.166-1.435 1.074-1.435 1.884v46.914c0 .557-.01 1.123 0 1.68.02.674.214 1.358.37 2.012a27.911 27.911 0 0 0 1.124 3.525c1.904 4.825 4.912 9.092 8.515 12.793 3.38 3.467 7.256 6.445 11.319 9.063a86.03 86.03 0 0 0 10.107 5.556c1.865.87 3.76 1.748 5.703 2.422.987.342 1.963-.283 2.852-.693 1.787-.82 3.555-1.68 5.303-2.588a97.896 97.896 0 0 0 8.955-5.244c4.424-2.94 8.633-6.29 12.187-10.244 2.373-2.637 4.512-5.557 6.055-8.76.937-1.953 1.728-4.014 2.09-6.152.136-.791.244-1.592.244-2.403V13.258c0-.801-.606-1.719-1.436-1.885-1.162-.234-2.334-.459-3.496-.693-2.783-.557-5.566-1.104-8.35-1.66-3.378-.674-6.767-1.338-10.146-2.012-2.92-.576-5.85-1.162-8.77-1.738-1.415-.284-2.831-.577-4.248-.84-.019 0-.038-.01-.058-.01-.996-.195-2.158.283-2.402 1.367-.225.957.293 2.178 1.357 2.393Z"/><path d="m30.634 47.516 4.11 4.111 6.602 6.602 1.514 1.513c.742.743 2.012.752 2.764 0l2.383-2.382 5.761-5.762 6.934-6.934 6.035-6.035c.977-.976 1.983-1.924 2.93-2.93.01-.02.029-.029.039-.039.722-.722.781-2.05 0-2.763-.782-.713-1.992-.772-2.764 0L64.56 35.28l-5.761 5.761-6.934 6.934-6.035 6.035c-.977.977-2.002 1.914-2.93 2.93-.01.02-.03.029-.039.039h2.764l-4.112-4.112-6.601-6.601-1.514-1.514c-.722-.723-2.05-.781-2.763 0-.713.781-.772 1.992 0 2.764Z"/></svg><svg viewBox="0 0 101 101" id="icon4" xmlns="http://www.w3.org/2000/svg"><path d="M91.425 98.746h-82.5V3.434h55l27.5 27.5v67.812ZM13.612 94.06h73.125V32.81l-25-25H13.612v86.25Z"/><path d="M89.237 34.371h-26.25c-1.25 0-2.5-.937-2.5-2.5V5.622c0-.937.625-1.875 1.563-2.187.937-.313 1.875-.313 2.5.625L90.8 30.31c.625.625.937 1.563.625 2.5-.625.938-1.25 1.563-2.188 1.563Zm-24.062-4.687H83.3L65.175 11.559v18.125Zm-19.063-7.5H28.3v4.687h17.812v-4.687Zm0 13.125H28.3v4.687h17.812V35.31ZM72.05 48.746H28.3v4.688h43.75v-4.688Zm0 13.125H28.3v4.688h43.75V61.87Zm0 13.125H28.3v4.688h43.75v-4.688Z"/></svg></svg>