<svg width="104" height="33" viewBox="0 0 104 33" fill="none" xmlns="http://www.w3.org/2000/svg">
<rect y="15.1836" width="6.58228" height="11.8481" fill="#FFCF8A"/>
<rect x="10.5317" y="5.96826" width="6.58228" height="21.0633" fill="#050D0E"/>
<path d="M30.7012 26.3594C28.895 26.3594 27.3469 25.9355 26.0567 25.0877C24.785 24.2399 23.8912 23.0788 23.3751 21.6044L25.5868 20.3327C26.3424 22.6733 28.0657 23.8436 30.7565 23.8436C32.0835 23.8436 33.0971 23.5764 33.7975 23.0419C34.4979 22.489 34.848 21.761 34.848 20.8579C34.848 19.9364 34.4979 19.2453 33.7975 18.7845C33.0971 18.3237 31.9268 17.8353 30.2865 17.3193C29.4756 17.0613 28.8582 16.8585 28.4343 16.7111C28.0104 16.5452 27.4759 16.3056 26.8308 15.9923C26.2042 15.6606 25.7342 15.3288 25.4209 14.9971C25.1076 14.6469 24.8219 14.1953 24.5639 13.6424C24.3243 13.0895 24.2045 12.4629 24.2045 11.7625C24.2045 10.0854 24.7943 8.75838 25.9738 7.78157C27.1534 6.78633 28.5909 6.28871 30.2865 6.28871C31.8162 6.28871 33.1432 6.67574 34.2675 7.44982C35.4102 8.2239 36.2672 9.24678 36.8385 10.5185L34.6822 11.7625C33.8528 9.77205 32.3876 8.77681 30.2865 8.77681C29.236 8.77681 28.3882 9.03483 27.7431 9.55088C27.0981 10.0669 26.7755 10.7673 26.7755 11.6519C26.7755 12.4997 27.0796 13.1448 27.6878 13.5871C28.296 14.0295 29.3466 14.4902 30.8394 14.9694C31.3739 15.1353 31.7517 15.2551 31.9729 15.3288C32.1941 15.4025 32.535 15.5315 32.9958 15.7158C33.475 15.9002 33.8251 16.0476 34.0463 16.1582C34.2675 16.2688 34.5624 16.4254 34.931 16.6282C35.318 16.8309 35.6037 17.0244 35.788 17.2087C35.9723 17.393 36.1842 17.6234 36.4238 17.8998C36.6819 18.1579 36.8662 18.4251 36.9767 18.7016C37.0873 18.978 37.1795 19.3006 37.2532 19.6692C37.3454 20.0193 37.3914 20.3972 37.3914 20.8026C37.3914 22.4982 36.774 23.8529 35.5392 24.8665C34.3043 25.8618 32.6917 26.3594 30.7012 26.3594ZM47.3017 14.4994H43.6249V21.9914C43.6249 22.6733 43.7539 23.1617 44.0119 23.4566C44.2883 23.7331 44.703 23.8805 45.2559 23.8989C45.8089 23.8989 46.4908 23.8805 47.3017 23.8436V26C45.2007 26.2765 43.6617 26.1106 42.6849 25.5024C41.7081 24.8757 41.2197 23.7054 41.2197 21.9914V14.4994H38.4828V12.1772H41.2197V9.02562L43.6249 8.30683V12.1772H47.3017V14.4994ZM60.8925 12.1772H63.2977V26H60.8925V23.6225C59.6946 25.4471 57.9529 26.3594 55.6675 26.3594C53.7323 26.3594 52.0828 25.659 50.719 24.2583C49.3551 22.8392 48.6732 21.1159 48.6732 19.0886C48.6732 17.0613 49.3551 15.3472 50.719 13.9465C52.0828 12.5274 53.7323 11.8178 55.6675 11.8178C57.9529 11.8178 59.6946 12.7301 60.8925 14.5547V12.1772ZM55.9716 24.0372C57.3723 24.0372 58.5427 23.5672 59.4826 22.6272C60.4226 21.6689 60.8925 20.4893 60.8925 19.0886C60.8925 17.6879 60.4226 16.5176 59.4826 15.5776C58.5427 14.6192 57.3723 14.14 55.9716 14.14C54.5893 14.14 53.4282 14.6192 52.4883 15.5776C51.5483 16.5176 51.0784 17.6879 51.0784 19.0886C51.0784 20.4893 51.5483 21.6689 52.4883 22.6272C53.4282 23.5672 54.5893 24.0372 55.9716 24.0372ZM78.6358 26H75.6501L69.3469 19.448V26H66.9417V6.6481H69.3469V18.2869L75.3183 12.1772H78.4146L71.8074 18.8674L78.6358 26ZM81.29 20.1944C81.5296 21.4293 82.0917 22.3876 82.9764 23.0696C83.8795 23.7515 84.9853 24.0925 86.2939 24.0925C88.1185 24.0925 89.4454 23.4197 90.2748 22.0743L92.3206 23.2354C90.9752 25.3181 88.9478 26.3594 86.2386 26.3594C84.0453 26.3594 82.2576 25.6775 80.8753 24.3136C79.5115 22.9313 78.8295 21.1897 78.8295 19.0886C78.8295 17.006 79.5023 15.2735 80.8477 13.8912C82.1931 12.509 83.9348 11.8178 86.0727 11.8178C88.1 11.8178 89.7495 12.5366 91.0212 13.9742C92.3114 15.3933 92.9564 17.1073 92.9564 19.1163C92.9564 19.4664 92.9288 19.8258 92.8735 20.1944H81.29ZM86.0727 14.0848C84.7826 14.0848 83.7136 14.4534 82.8658 15.1906C82.018 15.9094 81.4927 16.877 81.29 18.0934H90.5236C90.3209 16.7848 89.8048 15.7896 88.9755 15.1076C88.1461 14.4257 87.1785 14.0848 86.0727 14.0848ZM98.1264 14.4994C98.9189 12.7854 100.356 11.9284 102.439 11.9284V14.4442C101.26 14.3889 100.246 14.7022 99.3981 15.3841C98.5503 16.066 98.1264 17.1626 98.1264 18.6739V26H95.7212V12.1772H98.1264V14.4994Z" fill="#050D0E"/>
</svg>
